solid CATIA STL
  facet normal  0.000000e+000  0.000000e+000 -1.000000e+000
    outer loop
      vertex -1.700000e+001  6.300000e+001  7.600000e+001
      vertex  1.700000e+001 -5.660000e+001  7.600000e+001
      vertex -1.700000e+001  5.660000e+001  7.600000e+001
    endloop
  endfacet
  facet normal  0.000000e+000  0.000000e+000 -1.000000e+000
    outer loop
      vertex -4.378786e+001 -6.470000e+001  7.600000e+001
      vertex -4.378786e+001  6.470000e+001  7.600000e+001
      vertex -2.340000e+001  6.300000e+001  7.600000e+001
    endloop
  endfacet
  facet normal  0.000000e+000  -0.000000e+000 -1.000000e+000
    outer loop
      vertex -4.378786e+001 -6.470000e+001  7.600000e+001
      vertex -2.340000e+001  6.300000e+001  7.600000e+001
      vertex -2.340000e+001  5.660000e+001  7.600000e+001
    endloop
  endfacet
  facet normal  0.000000e+000  -0.000000e+000 -1.000000e+000
    outer loop
      vertex -4.378786e+001 -6.470000e+001  7.600000e+001
      vertex -2.340000e+001  5.660000e+001  7.600000e+001
      vertex -1.700000e+001  5.660000e+001  7.600000e+001
    endloop
  endfacet
  facet normal  0.000000e+000  -0.000000e+000 -1.000000e+000
    outer loop
      vertex -4.378786e+001 -6.470000e+001  7.600000e+001
      vertex -1.700000e+001  5.660000e+001  7.600000e+001
      vertex  1.700000e+001 -5.660000e+001  7.600000e+001
    endloop
  endfacet
  facet normal  0.000000e+000  -0.000000e+000 -1.000000e+000
    outer loop
      vertex -4.378786e+001 -6.470000e+001  7.600000e+001
      vertex  1.700000e+001 -5.660000e+001  7.600000e+001
      vertex  1.700000e+001 -6.300000e+001  7.600000e+001
    endloop
  endfacet
  facet normal  0.000000e+000  -0.000000e+000 -1.000000e+000
    outer loop
      vertex -4.378786e+001 -6.470000e+001  7.600000e+001
      vertex  1.700000e+001 -6.300000e+001  7.600000e+001
      vertex  2.340000e+001 -6.300000e+001  7.600000e+001
    endloop
  endfacet
  facet normal  0.000000e+000  -0.000000e+000 -1.000000e+000
    outer loop
      vertex -4.378786e+001 -6.470000e+001  7.600000e+001
      vertex  2.340000e+001 -6.300000e+001  7.600000e+001
      vertex  5.721214e+001 -6.470000e+001  7.600000e+001
    endloop
  endfacet
  facet normal  0.000000e+000  0.000000e+000 -1.000000e+000
    outer loop
      vertex  1.700000e+001 -5.660000e+001  7.600000e+001
      vertex -1.700000e+001  6.300000e+001  7.600000e+001
      vertex  2.340000e+001 -5.660000e+001  7.600000e+001
    endloop
  endfacet
  facet normal  0.000000e+000  0.000000e+000 -9.999999e-001
    outer loop
      vertex  2.340000e+001 -5.660000e+001  7.600000e+001
      vertex -1.700000e+001  6.300000e+001  7.600000e+001
      vertex  5.721214e+001  6.470000e+001  7.600000e+001
    endloop
  endfacet
  facet normal  0.000000e+000  0.000000e+000 -1.000000e+000
    outer loop
      vertex -1.700000e+001  6.300000e+001  7.600000e+001
      vertex -2.340000e+001  6.300000e+001  7.600000e+001
      vertex  5.721214e+001  6.470000e+001  7.600000e+001
    endloop
  endfacet
  facet normal  -0.000000e+000  0.000000e+000 -1.000000e+000
    outer loop
      vertex  5.721214e+001  6.470000e+001  7.600000e+001
      vertex -2.340000e+001  6.300000e+001  7.600000e+001
      vertex -4.378786e+001  6.470000e+001  7.600000e+001
    endloop
  endfacet
  facet normal  0.000000e+000  0.000000e+000 -1.000000e+000
    outer loop
      vertex  2.340000e+001 -5.660000e+001  7.600000e+001
      vertex  5.721214e+001  6.470000e+001  7.600000e+001
      vertex  2.340000e+001 -6.300000e+001  7.600000e+001
    endloop
  endfacet
  facet normal  0.000000e+000  0.000000e+000 -1.000000e+000
    outer loop
      vertex  2.340000e+001 -6.300000e+001  7.600000e+001
      vertex  5.721214e+001  6.470000e+001  7.600000e+001
      vertex  5.721214e+001 -6.470000e+001  7.600000e+001
    endloop
  endfacet
  facet normal  0.000000e+000 -1.000000e+000  0.000000e+000
    outer loop
      vertex -2.340000e+001  5.660000e+001  7.300000e+001
      vertex -1.700000e+001  5.660000e+001  7.300000e+001
      vertex -2.340000e+001  5.660000e+001  7.600000e+001
    endloop
  endfacet
  facet normal  0.000000e+000 -1.000000e+000  0.000000e+000
    outer loop
      vertex -2.340000e+001  5.660000e+001  7.600000e+001
      vertex -1.700000e+001  5.660000e+001  7.300000e+001
      vertex -1.700000e+001  5.660000e+001  7.600000e+001
    endloop
  endfacet
  facet normal  1.000000e+000  0.000000e+000  0.000000e+000
    outer loop
      vertex -1.700000e+001  6.300000e+001  7.300000e+001
      vertex -1.700000e+001  6.300000e+001  7.600000e+001
      vertex -1.700000e+001  5.660000e+001  7.300000e+001
    endloop
  endfacet
  facet normal  1.000000e+000  0.000000e+000  0.000000e+000
    outer loop
      vertex -1.700000e+001  5.660000e+001  7.300000e+001
      vertex -1.700000e+001  6.300000e+001  7.600000e+001
      vertex -1.700000e+001  5.660000e+001  7.600000e+001
    endloop
  endfacet
  facet normal  0.000000e+000  1.000000e+000  0.000000e+000
    outer loop
      vertex -1.700000e+001  6.300000e+001  7.300000e+001
      vertex -2.340000e+001  6.300000e+001  7.300000e+001
      vertex -1.700000e+001  6.300000e+001  7.600000e+001
    endloop
  endfacet
  facet normal  0.000000e+000  1.000000e+000  0.000000e+000
    outer loop
      vertex -1.700000e+001  6.300000e+001  7.600000e+001
      vertex -2.340000e+001  6.300000e+001  7.300000e+001
      vertex -2.340000e+001  6.300000e+001  7.600000e+001
    endloop
  endfacet
  facet normal -1.000000e+000  0.000000e+000  0.000000e+000
    outer loop
      vertex -2.340000e+001  5.660000e+001  7.300000e+001
      vertex -2.340000e+001  5.660000e+001  7.600000e+001
      vertex -2.340000e+001  6.300000e+001  7.300000e+001
    endloop
  endfacet
  facet normal -1.000000e+000  0.000000e+000  0.000000e+000
    outer loop
      vertex -2.340000e+001  6.300000e+001  7.300000e+001
      vertex -2.340000e+001  5.660000e+001  7.600000e+001
      vertex -2.340000e+001  6.300000e+001  7.600000e+001
    endloop
  endfacet
  facet normal  1.000000e+000  0.000000e+000  0.000000e+000
    outer loop
      vertex  2.340000e+001 -6.300000e+001  7.300000e+001
      vertex  2.340000e+001 -5.660000e+001  7.300000e+001
      vertex  2.340000e+001 -6.300000e+001  7.600000e+001
    endloop
  endfacet
  facet normal  1.000000e+000  -0.000000e+000  0.000000e+000
    outer loop
      vertex  2.340000e+001 -6.300000e+001  7.600000e+001
      vertex  2.340000e+001 -5.660000e+001  7.300000e+001
      vertex  2.340000e+001 -5.660000e+001  7.600000e+001
    endloop
  endfacet
  facet normal  0.000000e+000  1.000000e+000  0.000000e+000
    outer loop
      vertex  2.340000e+001 -5.660000e+001  7.300000e+001
      vertex  1.700000e+001 -5.660000e+001  7.300000e+001
      vertex  2.340000e+001 -5.660000e+001  7.600000e+001
    endloop
  endfacet
  facet normal  0.000000e+000  1.000000e+000  0.000000e+000
    outer loop
      vertex  2.340000e+001 -5.660000e+001  7.600000e+001
      vertex  1.700000e+001 -5.660000e+001  7.300000e+001
      vertex  1.700000e+001 -5.660000e+001  7.600000e+001
    endloop
  endfacet
  facet normal -1.000000e+000  0.000000e+000  0.000000e+000
    outer loop
      vertex  1.700000e+001 -5.660000e+001  7.300000e+001
      vertex  1.700000e+001 -6.300000e+001  7.300000e+001
      vertex  1.700000e+001 -5.660000e+001  7.600000e+001
    endloop
  endfacet
  facet normal -1.000000e+000  -0.000000e+000  0.000000e+000
    outer loop
      vertex  1.700000e+001 -5.660000e+001  7.600000e+001
      vertex  1.700000e+001 -6.300000e+001  7.300000e+001
      vertex  1.700000e+001 -6.300000e+001  7.600000e+001
    endloop
  endfacet
  facet normal  0.000000e+000 -1.000000e+000  0.000000e+000
    outer loop
      vertex  1.700000e+001 -6.300000e+001  7.300000e+001
      vertex  2.340000e+001 -6.300000e+001  7.300000e+001
      vertex  1.700000e+001 -6.300000e+001  7.600000e+001
    endloop
  endfacet
  facet normal  0.000000e+000 -1.000000e+000  0.000000e+000
    outer loop
      vertex  1.700000e+001 -6.300000e+001  7.600000e+001
      vertex  2.340000e+001 -6.300000e+001  7.300000e+001
      vertex  2.340000e+001 -6.300000e+001  7.600000e+001
    endloop
  endfacet
  facet normal  -0.000000e+000  0.000000e+000 -1.000000e+000
    outer loop
      vertex -2.340000e+001  6.300000e+001  7.300000e+001
      vertex -1.700000e+001  6.300000e+001  7.300000e+001
      vertex -2.340000e+001  5.660000e+001  7.300000e+001
    endloop
  endfacet
  facet normal  0.000000e+000  0.000000e+000 -1.000000e+000
    outer loop
      vertex -2.340000e+001  5.660000e+001  7.300000e+001
      vertex -1.700000e+001  6.300000e+001  7.300000e+001
      vertex -1.700000e+001  5.660000e+001  7.300000e+001
    endloop
  endfacet
  facet normal  -0.000000e+000  0.000000e+000 -1.000000e+000
    outer loop
      vertex  1.700000e+001 -5.660000e+001  7.300000e+001
      vertex  2.340000e+001 -5.660000e+001  7.300000e+001
      vertex  1.700000e+001 -6.300000e+001  7.300000e+001
    endloop
  endfacet
  facet normal  0.000000e+000  0.000000e+000 -1.000000e+000
    outer loop
      vertex  1.700000e+001 -6.300000e+001  7.300000e+001
      vertex  2.340000e+001 -5.660000e+001  7.300000e+001
      vertex  2.340000e+001 -6.300000e+001  7.300000e+001
    endloop
  endfacet
  facet normal  0.000000e+000  0.000000e+000  1.000000e+000
    outer loop
      vertex -4.378786e+001 -6.470000e+001  8.100000e+001
      vertex  5.721214e+001 -6.470000e+001  8.100000e+001
      vertex -4.378786e+001  6.470000e+001  8.100000e+001
    endloop
  endfacet
  facet normal  -0.000000e+000  0.000000e+000  1.000000e+000
    outer loop
      vertex -4.378786e+001  6.470000e+001  8.100000e+001
      vertex  5.721214e+001 -6.470000e+001  8.100000e+001
      vertex  5.721214e+001  6.470000e+001  8.100000e+001
    endloop
  endfacet
  facet normal  0.000000e+000  1.000000e+000  0.000000e+000
    outer loop
      vertex -4.378786e+001  6.470000e+001  8.100000e+001
      vertex  5.721214e+001  6.470000e+001  8.100000e+001
      vertex -4.378786e+001  6.470000e+001  7.600000e+001
    endloop
  endfacet
  facet normal  0.000000e+000  1.000000e+000  0.000000e+000
    outer loop
      vertex -4.378786e+001  6.470000e+001  7.600000e+001
      vertex  5.721214e+001  6.470000e+001  8.100000e+001
      vertex  5.721214e+001  6.470000e+001  7.600000e+001
    endloop
  endfacet
  facet normal  9.999999e-001  0.000000e+000  0.000000e+000
    outer loop
      vertex  5.721214e+001 -6.470000e+001  8.100000e+001
      vertex  5.721214e+001 -6.470000e+001  7.600000e+001
      vertex  5.721214e+001  6.470000e+001  8.100000e+001
    endloop
  endfacet
  facet normal  9.999999e-001  0.000000e+000  0.000000e+000
    outer loop
      vertex  5.721214e+001  6.470000e+001  8.100000e+001
      vertex  5.721214e+001 -6.470000e+001  7.600000e+001
      vertex  5.721214e+001  6.470000e+001  7.600000e+001
    endloop
  endfacet
  facet normal  0.000000e+000 -1.000000e+000  0.000000e+000
    outer loop
      vertex  5.721214e+001 -6.470000e+001  8.100000e+001
      vertex -4.378786e+001 -6.470000e+001  8.100000e+001
      vertex  5.721214e+001 -6.470000e+001  7.600000e+001
    endloop
  endfacet
  facet normal  0.000000e+000 -1.000000e+000  0.000000e+000
    outer loop
      vertex  5.721214e+001 -6.470000e+001  7.600000e+001
      vertex -4.378786e+001 -6.470000e+001  8.100000e+001
      vertex -4.378786e+001 -6.470000e+001  7.600000e+001
    endloop
  endfacet
  facet normal -9.999999e-001  0.000000e+000  0.000000e+000
    outer loop
      vertex -4.378786e+001  6.470000e+001  8.100000e+001
      vertex -4.378786e+001  6.470000e+001  7.600000e+001
      vertex -4.378786e+001 -6.470000e+001  8.100000e+001
    endloop
  endfacet
  facet normal -9.999999e-001  0.000000e+000  0.000000e+000
    outer loop
      vertex -4.378786e+001 -6.470000e+001  8.100000e+001
      vertex -4.378786e+001  6.470000e+001  7.600000e+001
      vertex -4.378786e+001 -6.470000e+001  7.600000e+001
    endloop
  endfacet
endsolid CATIA STL
